#define math.bm_width 16
#define math.bm_height 16
static char math.bm_bits[] = {
   0x00, 0x00, 0x0c, 0x00, 0x0c, 0x00, 0x3f, 0x7e, 0x3f, 0x7e, 0x0c, 0x00,
   0x0c, 0x00, 0x00, 0x00, 0x00, 0x18, 0x21, 0x18, 0x33, 0x00, 0x1e, 0x7e,
   0x0c, 0x7e, 0x1e, 0x00, 0x33, 0x18, 0x21, 0x18};
