/* Copyright (c) Varian Assoc., Inc.  All Rights Reserved. */
#define oval_width 16
#define oval_height 16
static char oval_bits[] = {
   0x00, 0x00, 0xe0, 0x03, 0xf8, 0x0f, 0x1c, 0x1c, 0x06, 0x30, 0x06, 0x30,
   0x03, 0x60, 0x03, 0x60, 0x03, 0x60, 0x06, 0x30, 0x06, 0x30, 0x1c, 0x1c,
   0xf8, 0x0f, 0xe0, 0x03, 0x00, 0x00, 0x00, 0x00};
