/* Copyright (c) Varian Assoc., Inc.  All Rights Reserved. */
#define pgon_width 16
#define pgon_height 16
static char pgon_bits[] = {
   0x00, 0x00, 0xf8, 0x1f, 0x10, 0x20, 0x20, 0x40, 0x40, 0x80, 0x80, 0x80,
   0x40, 0x80, 0x20, 0x80, 0x10, 0x40, 0x08, 0x20, 0x04, 0x10, 0x02, 0x08,
   0xff, 0x07, 0x00, 0x00, 0x00, 0x00, 0x00, 0x00};
