/* Copyright (c) Varian Assoc., Inc.  All Rights Reserved. */
#define point_width 16
#define point_height 16
static char point_bits[] = {
   0x80, 0x01, 0x80, 0x01, 0x80, 0x01, 0x80, 0x01, 0x80, 0x01, 0x00, 0x00,
   0x00, 0x00, 0x1f, 0xf8, 0x1f, 0xf8, 0x00, 0x00, 0x00, 0x00, 0x80, 0x01,
   0x80, 0x01, 0x80, 0x01, 0x80, 0x01, 0x80, 0x01};
