#define rot_NW-SE.bm_width 16
#define rot_NW-SE.bm_height 16
static char rot_NW-SE.bm_bits[] = {
   0x1f, 0x00, 0x0f, 0x00, 0x0f, 0x00, 0x1f, 0x00, 0x39, 0x00, 0x70, 0x00,
   0xe0, 0x00, 0xc0, 0x01, 0x80, 0x03, 0x00, 0x07, 0x00, 0x0e, 0x00, 0x9c,
   0x00, 0xf8, 0x00, 0xf0, 0x00, 0xf0, 0x00, 0xf8};
