#define rot_180.bm_width 16
#define rot_180.bm_height 16
static char rot_180.bm_bits[] = {
   0xc0, 0x07, 0xf0, 0x1f, 0x78, 0x3c, 0x1c, 0x30, 0x0c, 0x70, 0x0c, 0x60,
   0x3f, 0x60, 0x1e, 0x60, 0x0c, 0x00, 0x00, 0x00, 0x00, 0x00, 0x00, 0x00,
   0x00, 0x00, 0x00, 0x00, 0x00, 0x00, 0x00, 0x00};
