#define rot_90.bm_width 16
#define rot_90.bm_height 16
static char rot_90.bm_bits[] = {
   0x00, 0x01, 0x80, 0x01, 0xc0, 0x07, 0xc0, 0x1f, 0x80, 0x39, 0x00, 0x71,
   0x00, 0x60, 0x00, 0x60, 0x00, 0x60, 0x00, 0x00, 0x00, 0x00, 0x00, 0x00,
   0x00, 0x00, 0x00, 0x00, 0x00, 0x00, 0x00, 0x00};
