/* Copyright (c) Varian Assoc., Inc.  All Rights Reserved. */
#define selector_width 16
#define selector_height 16
static char selector_bits[] = {
   0x00, 0x00, 0x06, 0x00, 0x1e, 0x00, 0x7c, 0x00, 0xfc, 0x01, 0xf8, 0x07,
   0xf8, 0x01, 0xf0, 0x01, 0xf0, 0x03, 0x20, 0x07, 0x20, 0x0e, 0x00, 0x1c,
   0x00, 0x38, 0x00, 0x70, 0x00, 0x60, 0x00, 0x00};
