/* Copyright (c) Varian Assoc., Inc.  All Rights Reserved. */
#define vs_width 16
#define vs_height 16
static char vs_bits[] = {
   0x00, 0x01, 0x04, 0x41, 0x08, 0x21, 0xd0, 0x17, 0xe0, 0x0e, 0xf0, 0x18,
   0xf0, 0x18, 0xfe, 0xf0, 0xf0, 0x18, 0xf0, 0x18, 0xe0, 0x0e, 0xd0, 0x17,
   0x08, 0x21, 0x04, 0x41, 0x00, 0x01, 0x00, 0x00};
