#define alpha_width 16
#define alpha_height 16
static char alpha_bits[] = {
   0x00, 0x00, 0x80, 0x00, 0x80, 0x00, 0xc0, 0x01, 0xc0, 0x01, 0x60, 0x03,
   0x60, 0x03, 0x30, 0x06, 0x30, 0x06, 0xf8, 0x0f, 0xf8, 0x0f, 0x0c, 0x18,
   0x0c, 0x18, 0x1e, 0x3c, 0x00, 0x00, 0x00, 0x00};
