#define frame_width 16
#define frame_height 16
static char frame_bits[] = {
   0x1f, 0xf8, 0xff, 0xff, 0x03, 0xc0, 0x03, 0xc0, 0xc3, 0xc7, 0x42, 0x40,
   0x42, 0x40, 0x42, 0x40, 0xc2, 0x43, 0x42, 0x40, 0x42, 0x40, 0x43, 0xc0,
   0x43, 0xc0, 0x03, 0xc0, 0xff, 0xff, 0x1f, 0xf8};
