#define line_width 16
#define line_height 16
static char line_bits[] = {
   0x00, 0x00, 0x06, 0x00, 0x0e, 0x00, 0x1c, 0x00, 0x38, 0x00, 0x70, 0x00,
   0xe0, 0x00, 0xc0, 0x01, 0x80, 0x03, 0x00, 0x07, 0x00, 0x0e, 0x00, 0x1c,
   0x00, 0x38, 0x00, 0x70, 0x00, 0x60, 0x00, 0x00};
