#define rect_width 16
#define rect_height 16
static char rect_bits[] = {
   0x00, 0x00, 0x00, 0x00, 0xfe, 0x7f, 0xfe, 0x7f, 0x06, 0x60, 0x06, 0x60,
   0x06, 0x60, 0x06, 0x60, 0x06, 0x60, 0x06, 0x60, 0x06, 0x60, 0x06, 0x60,
   0xfe, 0x7f, 0xfe, 0x7f, 0x00, 0x00, 0x00, 0x00};
