#define ui_width 65
#define ui_height 26
static char ui_bits[] = {
   0xff, 0xff, 0xff, 0xff, 0xff, 0xff, 0xff, 0xff, 0x01, 0x01, 0x00, 0x00,
   0x00, 0x00, 0x00, 0x00, 0x00, 0x01, 0x01, 0x00, 0x00, 0x3c, 0x3f, 0x00,
   0x00, 0x00, 0x01, 0x01, 0x00, 0x00, 0x3c, 0x7e, 0x00, 0x00, 0x00, 0x01,
   0x01, 0x00, 0x00, 0x18, 0x66, 0x00, 0x00, 0x00, 0x01, 0x01, 0x00, 0x00,
   0x18, 0xc6, 0x00, 0x00, 0x00, 0x01, 0x01, 0x00, 0x00, 0x18, 0x66, 0x00,
   0x00, 0x00, 0x01, 0x01, 0x00, 0x00, 0x18, 0x3e, 0x00, 0x00, 0x00, 0x01,
   0x01, 0x00, 0x00, 0x18, 0x7e, 0x00, 0x00, 0x00, 0x01, 0x01, 0x00, 0x00,
   0x18, 0xc6, 0x00, 0x00, 0x00, 0x01, 0x01, 0x00, 0x00, 0x18, 0xc6, 0x00,
   0x00, 0x00, 0x01, 0x01, 0x00, 0x00, 0x18, 0xc6, 0x00, 0x00, 0x00, 0x01,
   0x01, 0x00, 0x00, 0x3c, 0x7e, 0x00, 0x00, 0x00, 0x01, 0x01, 0x00, 0x00,
   0x3c, 0x3f, 0x00, 0x00, 0x00, 0x01, 0x01, 0x00, 0x00, 0x00, 0x00, 0x00,
   0x00, 0x00, 0x01, 0xff, 0xff, 0xff, 0xff, 0xff, 0xff, 0xff, 0xff, 0x01,
   0x01, 0x00, 0x00, 0x00, 0x00, 0x00, 0x00, 0x00, 0x01, 0xe1, 0xff, 0x03,
   0xfc, 0x7f, 0x80, 0xff, 0x0f, 0x01, 0x11, 0x00, 0x04, 0x02, 0x80, 0x40,
   0x00, 0x10, 0x01, 0x09, 0x00, 0x08, 0x01, 0x00, 0x21, 0x00, 0x20, 0x01,
   0x09, 0x00, 0x08, 0x01, 0x00, 0x21, 0x00, 0x20, 0x01, 0x09, 0x00, 0x08,
   0x01, 0x00, 0x21, 0x00, 0x20, 0x01, 0x11, 0x00, 0x04, 0x02, 0x80, 0x40,
   0x00, 0x10, 0x01, 0xe1, 0xff, 0x03, 0xfc, 0x7f, 0x80, 0xff, 0x0f, 0x01,
   0x01, 0x00, 0x00, 0x00, 0x00, 0x00, 0x00, 0x00, 0x01, 0xff, 0xff, 0xff,
   0xff, 0xff, 0xff, 0xff, 0xff, 0x01};
