#define zoom_width 16
#define zoom_height 16
static char zoom_bits[] = {
   0x00, 0x01, 0x1f, 0x01, 0x90, 0x00, 0x88, 0x00, 0x84, 0x00, 0x42, 0x00,
   0x41, 0xff, 0x5f, 0x80, 0x20, 0x40, 0x20, 0x20, 0x20, 0x10, 0x10, 0x08,
   0x10, 0x04, 0x10, 0x02, 0x08, 0x01, 0x08, 0xff};
